<svg width="134" height="34" viewBox="0 0 134 34" fill="none" xmlns="http://www.w3.org/2000/svg">
<path d="M129.666 4.0733C129.666 4.0733 130.75 7.92749 126.895 8.65155C126.895 8.65155 123.288 8.82695 121.481 8.89441L97.7708 8.98885C97.7708 8.98885 89.7881 8.89441 87.9846 8.89441C86.1767 8.89441 81.0183 8.53013 78.4683 4.0778C78.4683 4.0778 78.6842 6.92459 79.912 9.44308L74.007 14.3182C74.007 14.3182 71.5515 2.99395 64.5897 2.87252C64.5897 2.87252 60.758 2.87252 58.5903 7.09099C58.5903 7.09099 58.2305 7.34734 56.7823 6.31746C55.3387 5.28758 24.7345 2.4003 21.9642 3.29976C19.1939 4.19923 17.2645 6.63677 16.7833 9.45658C16.7833 9.45658 14.2513 3.12437 10.1588 2.81855C10.1588 2.81855 7.50986 2.87702 5.58052 5.28757C5.58052 5.28757 7.26701 2.03602 1.12369 0.587891C1.12369 0.587891 -1.76808 8.78198 1.72633 20.1062L4.73953 21.9141C4.73953 21.9141 5.46359 30.8278 10.6445 30.9492C15.8254 31.0706 19.1984 30.9492 19.1984 30.9492C19.1984 30.9492 22.6928 28.0574 23.2954 24.563L53.8951 26.4924C53.8951 26.4924 55.5816 30.9492 60.7625 30.2251C60.7625 30.2251 62.4489 33.3553 65.4621 33.3553C68.4753 33.3553 74.4972 33.3553 74.4972 33.3553C74.4972 33.3553 76.9123 31.7092 78.3874 28.2103C78.4594 28.0439 78.5268 27.8685 78.5943 27.6931L93.2915 27.4503V26.7262L109.315 26.3664C109.315 26.3664 111.245 32.2714 115.22 32.2714C119.196 32.2714 123.293 32.2714 123.293 32.2714C123.293 32.2714 126.423 31.6688 128.114 27.4548L130.16 27.3334V25.8897C130.16 25.8897 133.349 30.477 133.349 9.44758C133.335 9.43858 132.917 5.63836 129.666 4.0733ZM4.54164 17.8441C4.54164 17.8441 3.40382 9.51504 6.9477 6.58729C10.4916 3.65955 12.9696 6.58729 12.9696 6.58729C12.9696 6.58729 9.03445 6.18703 6.70485 10.5584C4.36625 14.9253 4.54164 17.8441 4.54164 17.8441ZM12.1196 27.1265C11.4855 27.7201 10.8019 28.0259 10.0823 28.0259C7.87864 28.0259 6.01676 25.1387 5.56253 21.0057C5.55354 20.9247 5.612 20.8527 5.69295 20.8437C5.7739 20.8348 5.84586 20.8932 5.85486 20.9742C6.2866 24.8868 8.06303 27.7291 10.0823 27.7291C10.7209 27.7291 11.3371 27.4548 11.9172 26.9106C11.9757 26.8566 12.0701 26.8566 12.1286 26.9151C12.1826 26.9781 12.1781 27.068 12.1196 27.1265ZM13.4283 26.7847C12.4974 28.2958 11.3101 29.1278 10.0823 29.1278C7.22204 29.1278 4.89243 24.644 4.89243 19.1348C4.89243 18.1184 4.96889 17.1155 5.12629 16.1576C5.13979 16.0766 5.21624 16.0181 5.29719 16.0361C5.37814 16.0496 5.43211 16.1261 5.41862 16.207C5.26571 17.1515 5.18926 18.1409 5.18926 19.1393C5.18926 24.4866 7.38394 28.8355 10.0823 28.8355C11.2022 28.8355 12.304 28.0529 13.1765 26.6363C13.2214 26.5643 13.3114 26.5418 13.3788 26.5868C13.4508 26.6228 13.4688 26.7172 13.4283 26.7847ZM62.4444 5.51244C66.6359 3.93388 69.3613 7.50475 69.3613 7.50475C66.9058 6.54232 63.7981 6.0746 60.4881 10.9632C57.1781 15.8517 58.6082 24.7249 58.6082 24.7249C56.5035 15.6269 58.253 7.09099 62.4444 5.51244ZM67.8187 28.2328C67.0227 29.0603 66.1142 29.4966 65.1833 29.4966C62.3095 29.4966 59.9664 25.3366 59.9664 20.2231C59.9664 20.1422 60.0339 20.0747 60.1148 20.0747C60.1958 20.0747 60.2633 20.1422 60.2633 20.2231C60.2633 25.1702 62.4714 29.1997 65.1833 29.1997C66.0288 29.1997 66.8698 28.795 67.6074 28.0304C67.6658 27.972 67.7603 27.9675 67.8187 28.0259C67.8772 28.0799 67.8772 28.1744 67.8187 28.2328ZM53.94 20.8303C52.2985 21.8646 20.3362 17.3763 20.8534 16.5983C21.3706 15.8203 47.374 13.9224 49.7081 15.0422C52.0422 16.1666 55.3882 19.9173 53.94 20.8303ZM59.6156 27.6032C58.9321 27.927 58.3249 28.0484 57.7987 28.0484C56.0673 28.0484 55.1543 26.7307 55.1453 26.7127C55.1003 26.6453 55.1183 26.5553 55.1858 26.5059C55.2533 26.4609 55.3477 26.4789 55.3927 26.5463C55.4511 26.6318 56.8228 28.5971 59.4942 27.3334C59.5707 27.2974 59.6561 27.3289 59.6921 27.4053C59.7236 27.4818 59.6921 27.5672 59.6156 27.6032ZM69.6986 27.3828C68.5563 29.672 66.9103 30.9852 65.1833 30.9852C61.8508 30.9852 59.1434 26.1596 59.1434 20.2276C59.1434 18.0824 59.4942 16.0136 60.1598 14.2417C60.1868 14.1653 60.2722 14.1248 60.3487 14.1563C60.4252 14.1832 60.4656 14.2687 60.4342 14.3451C59.782 16.0856 59.4357 18.1184 59.4357 20.2276C59.4357 25.9977 62.0127 30.6884 65.1788 30.6884C66.7888 30.6884 68.3404 29.4336 69.4288 27.2524C69.4647 27.1804 69.5547 27.149 69.6266 27.1849C69.7076 27.2209 69.7346 27.3064 69.6986 27.3828ZM116.628 26.4744C116.704 26.4474 116.79 26.4924 116.817 26.5688C116.821 26.5778 117.123 27.4773 117.644 27.7291C117.802 27.8056 117.964 27.8101 118.135 27.7471C118.211 27.7201 118.296 27.7561 118.323 27.8326C118.35 27.909 118.314 27.9945 118.238 28.0214C118.126 28.0619 118.018 28.0844 117.905 28.0844C117.77 28.0844 117.64 28.0529 117.514 27.99C116.875 27.6842 116.547 26.6947 116.534 26.6543C116.507 26.5823 116.552 26.4969 116.628 26.4744ZM119.277 27.6167C117.995 29.1683 116.893 30.0362 114.964 30.0362C114.802 30.0362 114.631 30.0317 114.456 30.0182C112.279 29.8608 110.548 26.8162 110.476 26.6857C110.435 26.6138 110.462 26.5238 110.534 26.4834C110.606 26.4429 110.696 26.4699 110.737 26.5418C110.754 26.5733 112.463 29.5775 114.478 29.7214C116.61 29.8743 117.694 29.0693 119.048 27.4278C119.101 27.3648 119.191 27.3558 119.254 27.4098C119.322 27.4593 119.331 27.5537 119.277 27.6167Z" fill="white"/>
</svg>
